# File created by Blade
# Date/Time:  Wed Jan 21 17:10:37 2015
# Frame Rate: 120.000 fps
#------------------------------------------------------
:FULLY-SPECIFIED
:DEGREES
1230
root 19.613799 18.702565 -15.238471 -178.433208 3.586858 -176.842178
Spine 58.064014 10.798231 -7.016346
Head 1.162008 -1.621093 9.236221
LeftShoulder 17.653172 -37.314255 -1.077079
LeftArm 27.112020 36.601599 -38.031511
LeftForeArm 14.182049 -0.000000 4.081357
LeftHand -5.298870 -0.000000 -9.129231
LeftHandThumb1 -26.253704 0.000000 33.147579
RightShoulder 8.982676 -0.684387 -3.269513
RightArm 58.537444 -5.220759 23.265999
RightForeArm -42.411264 -0.000000 24.040050
RightHand -0.876693 -0.000000 10.372928
RightHandThumb1 -24.326973 -0.000000 -32.862282
LeftUpLeg -82.114364 8.409064 4.398744
LeftLeg 112.854444 -0.000000 -0.000000
LeftFoot -51.642790 28.751120 -18.698561
LeftToeBase 24.964288 -0.000000 -0.000000
RightUpLeg -82.312647 10.888696 2.570403
RightLeg 110.737618 -0.000000 -0.000000
RightFoot -51.302860 -33.648474 23.926281
RightToeBase 25.333119 -0.000000 -0.000000
1231
root 19.576697 19.082870 -15.232566 -178.154333 3.266948 -177.001619
Spine 57.472216 10.475569 -7.092215
Head 0.981333 -1.776450 9.322456
LeftShoulder 18.247689 -38.139122 -0.994390
LeftArm 27.511140 35.264931 -37.924507
LeftForeArm 14.092737 -0.000000 4.056158
LeftHand -5.256278 0.000000 -7.549977
LeftHandThumb1 -26.253704 0.000000 33.147579
RightShoulder 9.162554 -0.060636 -3.466030
RightArm 58.638369 -3.984236 23.957758
RightForeArm -41.622715 -0.000000 23.469678
RightHand -1.148745 -0.000000 9.338557
RightHandThumb1 -24.326973 -0.000000 -32.862282
LeftUpLeg -81.336325 8.172611 3.970362
LeftLeg 111.395600 -0.000000 -0.000000
LeftFoot -51.299276 28.893356 -18.626380
LeftToeBase 24.721728 -0.000000 -0.000000
RightUpLeg -81.448371 10.497851 2.317983
RightLeg 109.406978 -0.000000 -0.000000
RightFoot -51.102953 -33.470692 23.918797
RightToeBase 25.097027 -0.000000 -0.000000
1232
root 19.559985 19.451563 -15.242005 -177.921082 3.106366 -176.978413
Spine 56.831764 10.290864 -6.963098
Head 0.895792 -1.899308 9.312557
LeftShoulder 18.633857 -38.712781 -0.862881
LeftArm 28.285802 33.935043 -37.643996
LeftForeArm 13.512420 -0.000000 4.028926
LeftHand -5.242345 0.000000 -6.006786
LeftHandThumb1 -26.253704 0.000000 33.147579
RightShoulder 9.311017 0.373214 -3.662485
RightArm 58.887464 -2.643160 24.782337
RightForeArm -41.242559 0.000000 22.839851
RightHand -1.291670 -0.000000 8.942880
RightHandThumb1 -24.326973 -0.000000 -32.862282
LeftUpLeg -80.443510 8.097716 3.869117
LeftLeg 110.010645 -0.000000 -0.000000
LeftFoot -51.080370 29.009967 -18.385580
LeftToeBase 24.725898 -0.000000 -0.000000
RightUpLeg -80.513993 10.299442 2.253290
RightLeg 108.116672 -0.000000 -0.000000
RightFoot -50.834227 -33.238072 23.737890
RightToeBase 24.979297 -0.000000 -0.000000
1233
root 19.551777 19.816324 -15.252002 -177.643992 2.926727 -176.908094
Spine 56.094582 10.160291 -6.700144
Head 0.882061 -2.140665 9.319634
LeftShoulder 19.080829 -39.109197 -0.787718
LeftArm 29.327342 32.943362 -37.107876
LeftForeArm 12.707001 -0.000000 3.987664
LeftHand -5.102326 0.000000 -4.244885
LeftHandThumb1 -26.253704 0.000000 33.147579
RightShoulder 9.368249 0.675724 -3.783737
RightArm 59.169891 -1.327509 25.448754
RightForeArm -40.749749 0.000000 22.337900
RightHand -1.586155 -0.000000 8.682926
RightHandThumb1 -24.326973 -0.000000 -32.862282
LeftUpLeg -79.721087 8.073430 3.759849
LeftLeg 108.694398 -0.000000 -0.000000
LeftFoot -50.870072 28.762707 -18.598893
LeftToeBase 24.708827 -0.000000 -0.000000
RightUpLeg -79.619678 10.103036 2.323564
RightLeg 106.725132 -0.000000 -0.000000
RightFoot -50.664836 -33.325527 23.648752
RightToeBase 24.723047 -0.000000 -0.000000
1234
root 19.555768 20.192370 -15.275486 -177.572802 2.872654 -176.815783
Spine 55.617195 10.081003 -6.573269
Head 0.692698 -2.173538 9.341841
LeftShoulder 19.170508 -39.698717 -0.478402
LeftArm 30.374029 32.072007 -36.683750
LeftForeArm 11.837578 -0.000000 3.971093
LeftHand -4.952973 0.000000 -2.447354
LeftHandThumb1 -26.253704 0.000000 33.147579
RightShoulder 9.553019 1.218962 -3.928893
RightArm 59.562067 -0.224510 26.227104
RightForeArm -40.230612 -0.000000 21.711458
RightHand -1.916501 0.000000 8.342411
RightHandThumb1 -24.326973 -0.000000 -32.862282
LeftUpLeg -78.653191 8.221767 3.792550
LeftLeg 107.340867 -0.000000 -0.000000
LeftFoot -50.528215 28.594435 -18.368246
LeftToeBase 24.581129 -0.000000 -0.000000
RightUpLeg -78.448667 10.058808 2.427563
RightLeg 105.276461 -0.000000 -0.000000
RightFoot -50.453645 -33.436895 23.420549
RightToeBase 24.697813 -0.000000 -0.000000
1235
root 19.545007 20.567021 -15.285545 -177.381591 2.759318 -176.831534
Spine 54.983588 9.942527 -6.524551
Head 0.574674 -2.256377 9.344656
LeftShoulder 19.160453 -40.076071 -0.145373
LeftArm 31.723377 31.273815 -36.060203
LeftForeArm 10.883450 0.000000 4.015222
LeftHand -4.782714 -0.000000 -0.888537
LeftHandThumb1 -26.253704 0.000000 33.147579
RightShoulder 9.724382 1.799531 -4.070575
RightArm 59.912515 0.854961 27.272068
RightForeArm -39.854530 0.000000 21.180402
RightHand -2.174461 -0.000000 7.753685
RightHandThumb1 -24.326973 -0.000000 -32.862282
LeftUpLeg -77.774336 8.385021 3.578724
LeftLeg 105.919141 -0.000000 -0.000000
LeftFoot -50.153574 28.462653 -18.176372
LeftToeBase 24.498091 -0.000000 -0.000000
RightUpLeg -77.439478 9.876759 2.404065
RightLeg 103.783091 -0.000000 -0.000000
RightFoot -50.177906 -33.617842 23.016161
RightToeBase 24.774180 -0.000000 -0.000000
1236
root 19.533278 20.936504 -15.302255 -177.190856 2.575709 -176.836913
Spine 54.322261 9.783971 -6.366591
Head 0.481013 -2.449333 9.319280
LeftShoulder 19.180306 -40.347575 0.080816
LeftArm 33.175225 30.405730 -35.424491
LeftForeArm 9.860702 -0.000000 4.134004
LeftHand -4.424187 -0.000000 0.387814
LeftHandThumb1 -26.253704 0.000000 33.147579
RightShoulder 9.770667 2.079777 -4.196427
RightArm 60.409828 2.043302 28.180484
RightForeArm -39.285319 -0.000000 20.791885
RightHand -2.505045 -0.000000 7.315281
RightHandThumb1 -24.326973 -0.000000 -32.862282
LeftUpLeg -76.852804 8.329019 3.470977
LeftLeg 104.475762 -0.000000 -0.000000
LeftFoot -49.798908 28.501100 -17.891568
LeftToeBase 24.449578 -0.000000 -0.000000
RightUpLeg -76.492313 9.678431 2.365721
RightLeg 102.389801 -0.000000 -0.000000
RightFoot -49.900194 -33.552823 22.969055
RightToeBase 24.684139 -0.000000 -0.000000
1237
root 19.524468 21.303242 -15.344334 -177.174584 2.500645 -176.807537
Spine 53.799593 9.720984 -6.198719
Head 0.410923 -2.624829 9.320657
LeftShoulder 19.021771 -40.535957 0.417211
LeftArm 34.745849 29.712779 -34.733786
LeftForeArm 8.871373 -0.000000 4.356937
LeftHand -4.181895 -0.000000 1.570258
LeftHandThumb1 -26.253704 0.000000 33.147579
RightShoulder 9.869219 2.395138 -4.327383
RightArm 60.894053 3.192448 29.273977
RightForeArm -38.361330 -0.000000 20.615755
RightHand -2.983859 0.000000 7.303509
RightHandThumb1 -24.326973 -0.000000 -32.862282
LeftUpLeg -75.720743 8.417235 3.430499
LeftLeg 103.096693 -0.000000 -0.000000
LeftFoot -49.523309 28.242503 -17.860992
LeftToeBase 24.117309 -0.000000 -0.000000
RightUpLeg -75.326896 9.583283 2.388953
RightLeg 101.016134 -0.000000 -0.000000
RightFoot -49.673383 -33.488730 22.942318
RightToeBase 24.729406 -0.000000 -0.000000
1238
root 19.506984 21.669769 -15.380161 -177.073507 2.370429 -176.787723
Spine 53.168708 9.584309 -6.005378
Head 0.390246 -2.825630 9.275622
LeftShoulder 18.837515 -40.545315 0.673579
LeftArm 36.444649 29.009105 -33.906624
LeftForeArm 7.950882 -0.000000 4.730944
LeftHand -3.874539 0.000000 2.572779
LeftHandThumb1 -26.253704 0.000000 33.147579
RightShoulder 9.949640 2.815934 -4.437664
RightArm 61.285630 4.053842 30.295806
RightForeArm -37.953126 -0.000000 20.478226
RightHand -3.395330 0.000000 6.885982
RightHandThumb1 -24.326973 -0.000000 -32.862282
LeftUpLeg -74.740296 8.363060 3.339684
LeftLeg 101.689189 -0.000000 -0.000000
LeftFoot -49.222967 28.219383 -17.942298
LeftToeBase 24.082869 -0.000000 -0.000000
RightUpLeg -74.240330 9.388067 2.411941
RightLeg 99.582938 -0.000000 -0.000000
RightFoot -49.433027 -33.512719 22.788371
RightToeBase 24.713775 -0.000000 -0.000000
1239
root 19.480090 22.042146 -15.423323 -177.012764 2.144760 -176.874842
Spine 52.585786 9.437597 -5.846312
Head 0.396136 -3.080347 9.288471
LeftShoulder 18.898904 -40.773690 0.791644
LeftArm 37.619629 27.793956 -33.922259
LeftForeArm 7.672992 0.000000 5.014135
LeftHand -3.465784 -0.000000 3.297059
LeftHandThumb1 -26.253704 0.000000 33.147579
RightShoulder 9.930851 2.903037 -4.520275
RightArm 61.846097 5.092759 31.198989
RightForeArm -37.363150 -0.000000 20.423319
RightHand -3.458690 -0.000000 6.410564
RightHandThumb1 -24.326973 -0.000000 -32.862282
LeftUpLeg -73.693953 8.383351 3.059655
LeftLeg 100.204330 -0.000000 -0.000000
LeftFoot -48.877058 28.162258 -17.779033
LeftToeBase 24.116034 -0.000000 -0.000000
RightUpLeg -73.169998 9.086719 2.321587
RightLeg 98.230974 -0.000000 -0.000000
RightFoot -49.176329 -33.272752 22.924492
RightToeBase 24.524974 -0.000000 -0.000000
